<?xml version='1.0' encoding='utf-8'?>
<mxfile host="app.diagrams.net"><diagram name="Site Map"><mxGraphModel><root><mxCell id="0" /><mxCell id="1" parent="0" /><mxCell id="3d206397-f875-4cd2-853f-6b91e66edfc9" value="Home" style="shape=rectangle;whiteSpace=wrap;html=1;rounded=1;" vertex="1" parent="1"><mxGeometry x="200" y="20" width="120" height="60" as="geometry" /></mxCell><mxCell id="9b87bd51-5d8d-45e2-9bb9-7e9aad1632ec" value="List" style="shape=rectangle;whiteSpace=wrap;html=1;rounded=1;" vertex="1" parent="1"><mxGeometry x="50" y="120" width="120" height="60" as="geometry" /></mxCell><mxCell id="5e987f69-d42d-4559-a064-7e2015666d52" edge="1" parent="1" source="3d206397-f875-4cd2-853f-6b91e66edfc9" target="9b87bd51-5d8d-45e2-9bb9-7e9aad1632ec" style="endArrow=block;"><mxGeometry relative="1" as="geometry" /></mxCell><mxCell id="6be72b25-7601-446b-b77f-d474eb9ffddd" value="商品分類" style="shape=rectangle;whiteSpace=wrap;html=1;rounded=1;" vertex="1" parent="1"><mxGeometry x="-850" y="220" width="120" height="60" as="geometry" /></mxCell><mxCell id="32380009-0530-4a8d-a0f8-6856306b8498" edge="1" parent="1" source="9b87bd51-5d8d-45e2-9bb9-7e9aad1632ec" target="6be72b25-7601-446b-b77f-d474eb9ffddd" style="endArrow=block;"><mxGeometry relative="1" as="geometry" /></mxCell><mxCell id="2dd4bce2-4673-427a-bd05-1d35ff444928" value="商品列表" style="shape=rectangle;whiteSpace=wrap;html=1;rounded=1;" vertex="1" parent="1"><mxGeometry x="-850" y="320" width="120" height="60" as="geometry" /></mxCell><mxCell id="aa29e505-e4ea-400b-92b3-e2014f8f5afd" edge="1" parent="1" source="6be72b25-7601-446b-b77f-d474eb9ffddd" target="2dd4bce2-4673-427a-bd05-1d35ff444928" style="endArrow=block;"><mxGeometry relative="1" as="geometry" /></mxCell><mxCell id="6d711754-1615-4f47-bc4b-d39d25c7d154" value="詳細資料" style="shape=rectangle;whiteSpace=wrap;html=1;rounded=1;" vertex="1" parent="1"><mxGeometry x="-850" y="420" width="120" height="60" as="geometry" /></mxCell><mxCell id="25039639-20cc-4896-a4c1-713e777b09f9" edge="1" parent="1" source="2dd4bce2-4673-427a-bd05-1d35ff444928" target="6d711754-1615-4f47-bc4b-d39d25c7d154" style="endArrow=block;"><mxGeometry relative="1" as="geometry" /></mxCell><mxCell id="4833872e-d32c-45c1-acb6-84e7abd0d59d" value="最近看過 [登入後]" style="shape=rectangle;whiteSpace=wrap;html=1;rounded=1;" vertex="1" parent="1"><mxGeometry x="-550" y="220" width="120" height="60" as="geometry" /></mxCell><mxCell id="ca98bead-3cfe-4b36-826a-489367f0cc65" edge="1" parent="1" source="9b87bd51-5d8d-45e2-9bb9-7e9aad1632ec" target="4833872e-d32c-45c1-acb6-84e7abd0d59d" style="endArrow=block;"><mxGeometry relative="1" as="geometry" /></mxCell><mxCell id="a826db84-c821-4bb6-8714-ebd036ec13da" value="商品列表" style="shape=rectangle;whiteSpace=wrap;html=1;rounded=1;" vertex="1" parent="1"><mxGeometry x="-550" y="320" width="120" height="60" as="geometry" /></mxCell><mxCell id="53828442-9502-4891-a86f-b779f98d1de6" edge="1" parent="1" source="4833872e-d32c-45c1-acb6-84e7abd0d59d" target="a826db84-c821-4bb6-8714-ebd036ec13da" style="endArrow=block;"><mxGeometry relative="1" as="geometry" /></mxCell><mxCell id="0db76928-cbaf-4651-befd-98cf4dac84bf" value="詳細資料" style="shape=rectangle;whiteSpace=wrap;html=1;rounded=1;" vertex="1" parent="1"><mxGeometry x="-550" y="420" width="120" height="60" as="geometry" /></mxCell><mxCell id="077dbed3-d3d9-49d1-8818-0df864dad190" edge="1" parent="1" source="a826db84-c821-4bb6-8714-ebd036ec13da" target="0db76928-cbaf-4651-befd-98cf4dac84bf" style="endArrow=block;"><mxGeometry relative="1" as="geometry" /></mxCell><mxCell id="038a54f9-8a1c-4fca-b4c6-6396449ef772" value="購物車 [登入後]" style="shape=rectangle;whiteSpace=wrap;html=1;rounded=1;" vertex="1" parent="1"><mxGeometry x="-250" y="220" width="120" height="60" as="geometry" /></mxCell><mxCell id="14e41635-7c10-41ce-90ac-b6c8baa59f34" edge="1" parent="1" source="9b87bd51-5d8d-45e2-9bb9-7e9aad1632ec" target="038a54f9-8a1c-4fca-b4c6-6396449ef772" style="endArrow=block;"><mxGeometry relative="1" as="geometry" /></mxCell><mxCell id="befed8cc-e13d-4207-a8e3-3f2897385ee0" value="Search" style="shape=rectangle;whiteSpace=wrap;html=1;rounded=1;" vertex="1" parent="1"><mxGeometry x="50" y="220" width="120" height="60" as="geometry" /></mxCell><mxCell id="9993aafb-3ec0-41b1-88ea-630bb58a7bae" edge="1" parent="1" source="9b87bd51-5d8d-45e2-9bb9-7e9aad1632ec" target="befed8cc-e13d-4207-a8e3-3f2897385ee0" style="endArrow=block;"><mxGeometry relative="1" as="geometry" /></mxCell><mxCell id="acffc775-44de-444e-8808-4b8f7fea5102" value="搜尋結果" style="shape=rectangle;whiteSpace=wrap;html=1;rounded=1;" vertex="1" parent="1"><mxGeometry x="50" y="320" width="120" height="60" as="geometry" /></mxCell><mxCell id="65dc237b-5331-44a8-a74f-fb801c829e69" edge="1" parent="1" source="befed8cc-e13d-4207-a8e3-3f2897385ee0" target="acffc775-44de-444e-8808-4b8f7fea5102" style="endArrow=block;"><mxGeometry relative="1" as="geometry" /></mxCell><mxCell id="1c8d8319-ab8a-4706-b6fb-e41a9805fd02" value="商品列表" style="shape=rectangle;whiteSpace=wrap;html=1;rounded=1;" vertex="1" parent="1"><mxGeometry x="-100" y="420" width="120" height="60" as="geometry" /></mxCell><mxCell id="07496f92-ae16-4abe-b36f-b091ba226e24" edge="1" parent="1" source="acffc775-44de-444e-8808-4b8f7fea5102" target="1c8d8319-ab8a-4706-b6fb-e41a9805fd02" style="endArrow=block;"><mxGeometry relative="1" as="geometry" /></mxCell><mxCell id="6447628d-7d85-4e35-816f-d10ce4d09372" value="詳細資料" style="shape=rectangle;whiteSpace=wrap;html=1;rounded=1;" vertex="1" parent="1"><mxGeometry x="-100" y="520" width="120" height="60" as="geometry" /></mxCell><mxCell id="79bb1104-dd55-4bb6-9dd6-9ced4f995e73" edge="1" parent="1" source="1c8d8319-ab8a-4706-b6fb-e41a9805fd02" target="6447628d-7d85-4e35-816f-d10ce4d09372" style="endArrow=block;"><mxGeometry relative="1" as="geometry" /></mxCell><mxCell id="3dba5f44-ba78-4e34-b6cf-d003022b6106" value="篩選功能" style="shape=rectangle;whiteSpace=wrap;html=1;rounded=1;" vertex="1" parent="1"><mxGeometry x="200" y="420" width="120" height="60" as="geometry" /></mxCell><mxCell id="7da13d7c-46b7-4e4d-b46f-883cef8a8f8f" edge="1" parent="1" source="acffc775-44de-444e-8808-4b8f7fea5102" target="3dba5f44-ba78-4e34-b6cf-d003022b6106" style="endArrow=block;"><mxGeometry relative="1" as="geometry" /></mxCell><mxCell id="df7d2809-d695-4fa4-967a-966fd5757b1d" value="商品列表" style="shape=rectangle;whiteSpace=wrap;html=1;rounded=1;" vertex="1" parent="1"><mxGeometry x="200" y="520" width="120" height="60" as="geometry" /></mxCell><mxCell id="660496da-a5e5-462d-b6a3-924927297418" edge="1" parent="1" source="3dba5f44-ba78-4e34-b6cf-d003022b6106" target="df7d2809-d695-4fa4-967a-966fd5757b1d" style="endArrow=block;"><mxGeometry relative="1" as="geometry" /></mxCell><mxCell id="5b5af405-b583-411a-bdcf-1f7a4388f20f" value="詳細資料" style="shape=rectangle;whiteSpace=wrap;html=1;rounded=1;" vertex="1" parent="1"><mxGeometry x="200" y="620" width="120" height="60" as="geometry" /></mxCell><mxCell id="33752482-97d0-4222-9787-5030b2446e6a" edge="1" parent="1" source="df7d2809-d695-4fa4-967a-966fd5757b1d" target="5b5af405-b583-411a-bdcf-1f7a4388f20f" style="endArrow=block;"><mxGeometry relative="1" as="geometry" /></mxCell><mxCell id="f0fe457f-cf46-40c2-9d04-39c1425ee2fb" value="會員中心 [登入後]" style="shape=rectangle;whiteSpace=wrap;html=1;rounded=1;" vertex="1" parent="1"><mxGeometry x="350" y="220" width="120" height="60" as="geometry" /></mxCell><mxCell id="e971e5c2-29c8-42c5-978a-8b3752120db1" edge="1" parent="1" source="9b87bd51-5d8d-45e2-9bb9-7e9aad1632ec" target="f0fe457f-cf46-40c2-9d04-39c1425ee2fb" style="endArrow=block;"><mxGeometry relative="1" as="geometry" /></mxCell><mxCell id="43bc855a-25ca-431a-93c1-f14444e7c2ab" value="買家頁面" style="shape=rectangle;whiteSpace=wrap;html=1;rounded=1;" vertex="1" parent="1"><mxGeometry x="200" y="320" width="120" height="60" as="geometry" /></mxCell><mxCell id="de8495af-bc72-4b8d-9e9d-814b8fc6c70c" edge="1" parent="1" source="f0fe457f-cf46-40c2-9d04-39c1425ee2fb" target="43bc855a-25ca-431a-93c1-f14444e7c2ab" style="endArrow=block;"><mxGeometry relative="1" as="geometry" /></mxCell><mxCell id="027f1f83-a0e8-4ade-85c1-5050c4e70872" value="我的收藏" style="shape=rectangle;whiteSpace=wrap;html=1;rounded=1;" vertex="1" parent="1"><mxGeometry x="-100" y="420" width="120" height="60" as="geometry" /></mxCell><mxCell id="32fef1e7-10f5-4d20-a3cf-1a3b6bf42045" edge="1" parent="1" source="43bc855a-25ca-431a-93c1-f14444e7c2ab" target="027f1f83-a0e8-4ade-85c1-5050c4e70872" style="endArrow=block;"><mxGeometry relative="1" as="geometry" /></mxCell><mxCell id="e67300ad-31dd-415b-a51e-83897113f565" value="查看訂單" style="shape=rectangle;whiteSpace=wrap;html=1;rounded=1;" vertex="1" parent="1"><mxGeometry x="200" y="420" width="120" height="60" as="geometry" /></mxCell><mxCell id="b2ea5499-9517-4856-9d1a-5133d83b3685" edge="1" parent="1" source="43bc855a-25ca-431a-93c1-f14444e7c2ab" target="e67300ad-31dd-415b-a51e-83897113f565" style="endArrow=block;"><mxGeometry relative="1" as="geometry" /></mxCell><mxCell id="853fac78-feb7-4fd9-b737-443ef991a92a" value="編輯資料" style="shape=rectangle;whiteSpace=wrap;html=1;rounded=1;" vertex="1" parent="1"><mxGeometry x="500" y="420" width="120" height="60" as="geometry" /></mxCell><mxCell id="88750193-f82a-4d62-9ec2-89a1e9a7217d" edge="1" parent="1" source="43bc855a-25ca-431a-93c1-f14444e7c2ab" target="853fac78-feb7-4fd9-b737-443ef991a92a" style="endArrow=block;"><mxGeometry relative="1" as="geometry" /></mxCell><mxCell id="961b2e62-6bad-4b1d-a9cc-a3676ee733aa" value="賣家頁面" style="shape=rectangle;whiteSpace=wrap;html=1;rounded=1;" vertex="1" parent="1"><mxGeometry x="500" y="320" width="120" height="60" as="geometry" /></mxCell><mxCell id="61fa8730-34d1-4363-b6c5-b3a4309b8bda" edge="1" parent="1" source="f0fe457f-cf46-40c2-9d04-39c1425ee2fb" target="961b2e62-6bad-4b1d-a9cc-a3676ee733aa" style="endArrow=block;"><mxGeometry relative="1" as="geometry" /></mxCell><mxCell id="7c9b7923-8e81-488f-8e44-a30e56958722" value="上架商品" style="shape=rectangle;whiteSpace=wrap;html=1;rounded=1;" vertex="1" parent="1"><mxGeometry x="50" y="420" width="120" height="60" as="geometry" /></mxCell><mxCell id="c2a201b9-c18e-4127-b08b-a5ca009cf558" edge="1" parent="1" source="961b2e62-6bad-4b1d-a9cc-a3676ee733aa" target="7c9b7923-8e81-488f-8e44-a30e56958722" style="endArrow=block;"><mxGeometry relative="1" as="geometry" /></mxCell><mxCell id="e0123245-2959-4a1a-9327-8573689f3d9a" value="查看已上架商品" style="shape=rectangle;whiteSpace=wrap;html=1;rounded=1;" vertex="1" parent="1"><mxGeometry x="350" y="420" width="120" height="60" as="geometry" /></mxCell><mxCell id="0203981d-a21f-4701-a59a-84c3354e5fe7" edge="1" parent="1" source="961b2e62-6bad-4b1d-a9cc-a3676ee733aa" target="e0123245-2959-4a1a-9327-8573689f3d9a" style="endArrow=block;"><mxGeometry relative="1" as="geometry" /></mxCell><mxCell id="b79b6c45-daa7-4457-909e-2a3a8fe9eb7f" value="查看訂單" style="shape=rectangle;whiteSpace=wrap;html=1;rounded=1;" vertex="1" parent="1"><mxGeometry x="650" y="420" width="120" height="60" as="geometry" /></mxCell><mxCell id="8290cb65-40bd-43d5-baee-184467abf7fe" edge="1" parent="1" source="961b2e62-6bad-4b1d-a9cc-a3676ee733aa" target="b79b6c45-daa7-4457-909e-2a3a8fe9eb7f" style="endArrow=block;"><mxGeometry relative="1" as="geometry" /></mxCell><mxCell id="e433acda-57c7-4c9a-b49e-70b5542651db" value="編輯資料" style="shape=rectangle;whiteSpace=wrap;html=1;rounded=1;" vertex="1" parent="1"><mxGeometry x="950" y="420" width="120" height="60" as="geometry" /></mxCell><mxCell id="0134ee7d-39d0-4708-84f7-2b8be1027309" edge="1" parent="1" source="961b2e62-6bad-4b1d-a9cc-a3676ee733aa" target="e433acda-57c7-4c9a-b49e-70b5542651db" style="endArrow=block;"><mxGeometry relative="1" as="geometry" /></mxCell><mxCell id="403f556c-9594-4cc1-ac08-970f3471187b" value="通知中心" style="shape=rectangle;whiteSpace=wrap;html=1;rounded=1;" vertex="1" parent="1"><mxGeometry x="650" y="220" width="120" height="60" as="geometry" /></mxCell><mxCell id="2eb05f8d-e7f0-485f-a352-c1845886d24d" edge="1" parent="1" source="9b87bd51-5d8d-45e2-9bb9-7e9aad1632ec" target="403f556c-9594-4cc1-ac08-970f3471187b" style="endArrow=block;"><mxGeometry relative="1" as="geometry" /></mxCell><mxCell id="cca66961-0449-4121-b2e9-19f68bf4167c" value="登入 / 註冊" style="shape=rectangle;whiteSpace=wrap;html=1;rounded=1;" vertex="1" parent="1"><mxGeometry x="950" y="220" width="120" height="60" as="geometry" /></mxCell><mxCell id="935ac78c-020e-49e9-8473-ea32fd5770bf" edge="1" parent="1" source="9b87bd51-5d8d-45e2-9bb9-7e9aad1632ec" target="cca66961-0449-4121-b2e9-19f68bf4167c" style="endArrow=block;"><mxGeometry relative="1" as="geometry" /></mxCell><mxCell id="95fea49d-8e84-43ce-ab2e-637b45106ae2" value="推薦區塊" style="shape=rectangle;whiteSpace=wrap;html=1;rounded=1;" vertex="1" parent="1"><mxGeometry x="350" y="120" width="120" height="60" as="geometry" /></mxCell><mxCell id="0fc6d42a-3333-4c2c-8153-a75f86eb60f4" edge="1" parent="1" source="3d206397-f875-4cd2-853f-6b91e66edfc9" target="95fea49d-8e84-43ce-ab2e-637b45106ae2" style="endArrow=block;"><mxGeometry relative="1" as="geometry" /></mxCell><mxCell id="60abee11-56c3-495f-9917-f7b5b487a537" value="員工後台" style="shape=rectangle;whiteSpace=wrap;html=1;rounded=1;" vertex="1" parent="1"><mxGeometry x="800" y="20" width="120" height="60" as="geometry" /></mxCell><mxCell id="83a362b2-a57e-4edb-9933-e455b07e83d3" value="Dashboard" style="shape=rectangle;whiteSpace=wrap;html=1;rounded=1;" vertex="1" parent="1"><mxGeometry x="800" y="120" width="120" height="60" as="geometry" /></mxCell><mxCell id="db8193cd-ea5c-42bb-9b08-5930c866f740" edge="1" parent="1" source="60abee11-56c3-495f-9917-f7b5b487a537" target="83a362b2-a57e-4edb-9933-e455b07e83d3" style="endArrow=block;"><mxGeometry relative="1" as="geometry" /></mxCell><mxCell id="9bc5fb26-0953-4018-9252-82f82b433526" value="系統概況" style="shape=rectangle;whiteSpace=wrap;html=1;rounded=1;" vertex="1" parent="1"><mxGeometry x="-250" y="220" width="120" height="60" as="geometry" /></mxCell><mxCell id="b3312ada-cc67-4107-8332-367d3f1238c9" edge="1" parent="1" source="83a362b2-a57e-4edb-9933-e455b07e83d3" target="9bc5fb26-0953-4018-9252-82f82b433526" style="endArrow=block;"><mxGeometry relative="1" as="geometry" /></mxCell><mxCell id="9e018d9a-a1e3-4176-b537-23e16bd905c5" value="通知中心" style="shape=rectangle;whiteSpace=wrap;html=1;rounded=1;" vertex="1" parent="1"><mxGeometry x="50" y="220" width="120" height="60" as="geometry" /></mxCell><mxCell id="dd32e2b9-e524-49a4-be53-2068b5d815d9" edge="1" parent="1" source="83a362b2-a57e-4edb-9933-e455b07e83d3" target="9e018d9a-a1e3-4176-b537-23e16bd905c5" style="endArrow=block;"><mxGeometry relative="1" as="geometry" /></mxCell><mxCell id="79e1068a-6716-470c-baec-d0ea955d209d" value="商品管理" style="shape=rectangle;whiteSpace=wrap;html=1;rounded=1;" vertex="1" parent="1"><mxGeometry x="350" y="220" width="120" height="60" as="geometry" /></mxCell><mxCell id="5c6aa822-d019-4de4-8424-d8c55f42f95c" edge="1" parent="1" source="83a362b2-a57e-4edb-9933-e455b07e83d3" target="79e1068a-6716-470c-baec-d0ea955d209d" style="endArrow=block;"><mxGeometry relative="1" as="geometry" /></mxCell><mxCell id="1011eeb4-7482-41db-bda0-14e5e848642f" value="商品列表" style="shape=rectangle;whiteSpace=wrap;html=1;rounded=1;" vertex="1" parent="1"><mxGeometry x="-250" y="320" width="120" height="60" as="geometry" /></mxCell><mxCell id="197f071c-7f83-4c9b-b4c8-f4f71e6749ab" edge="1" parent="1" source="79e1068a-6716-470c-baec-d0ea955d209d" target="1011eeb4-7482-41db-bda0-14e5e848642f" style="endArrow=block;"><mxGeometry relative="1" as="geometry" /></mxCell><mxCell id="6852289d-cd89-4a1e-b23e-0325922a40eb" value="新增商品" style="shape=rectangle;whiteSpace=wrap;html=1;rounded=1;" vertex="1" parent="1"><mxGeometry x="50" y="320" width="120" height="60" as="geometry" /></mxCell><mxCell id="54875783-2e8c-48fa-bb80-bb8c575d4654" edge="1" parent="1" source="79e1068a-6716-470c-baec-d0ea955d209d" target="6852289d-cd89-4a1e-b23e-0325922a40eb" style="endArrow=block;"><mxGeometry relative="1" as="geometry" /></mxCell><mxCell id="6344810a-4cd3-4366-ba31-6c229d8d686b" value="編輯商品" style="shape=rectangle;whiteSpace=wrap;html=1;rounded=1;" vertex="1" parent="1"><mxGeometry x="350" y="320" width="120" height="60" as="geometry" /></mxCell><mxCell id="f8d9209d-54fe-4b46-a9dc-cc556bae6a97" edge="1" parent="1" source="79e1068a-6716-470c-baec-d0ea955d209d" target="6344810a-4cd3-4366-ba31-6c229d8d686b" style="endArrow=block;"><mxGeometry relative="1" as="geometry" /></mxCell><mxCell id="d2bebc6d-2042-4e48-8598-8cc71ac1af77" value="商品分類管理" style="shape=rectangle;whiteSpace=wrap;html=1;rounded=1;" vertex="1" parent="1"><mxGeometry x="650" y="320" width="120" height="60" as="geometry" /></mxCell><mxCell id="c893b6f7-9a65-4c76-ac06-aa80a8f6bf79" edge="1" parent="1" source="79e1068a-6716-470c-baec-d0ea955d209d" target="d2bebc6d-2042-4e48-8598-8cc71ac1af77" style="endArrow=block;"><mxGeometry relative="1" as="geometry" /></mxCell><mxCell id="74f0c740-f00b-437d-a107-f3ed5e77ae87" value="庫存管理" style="shape=rectangle;whiteSpace=wrap;html=1;rounded=1;" vertex="1" parent="1"><mxGeometry x="950" y="320" width="120" height="60" as="geometry" /></mxCell><mxCell id="2f9aa815-db09-4a1a-8096-0759e450d6de" edge="1" parent="1" source="79e1068a-6716-470c-baec-d0ea955d209d" target="74f0c740-f00b-437d-a107-f3ed5e77ae87" style="endArrow=block;"><mxGeometry relative="1" as="geometry" /></mxCell><mxCell id="34f8ef06-956f-4203-af83-e291541e8809" value="訂單管理" style="shape=rectangle;whiteSpace=wrap;html=1;rounded=1;" vertex="1" parent="1"><mxGeometry x="650" y="220" width="120" height="60" as="geometry" /></mxCell><mxCell id="b126f6ba-a3ec-4162-9947-a31f7b40f28c" edge="1" parent="1" source="83a362b2-a57e-4edb-9933-e455b07e83d3" target="34f8ef06-956f-4203-af83-e291541e8809" style="endArrow=block;"><mxGeometry relative="1" as="geometry" /></mxCell><mxCell id="6b58a4f0-cbcb-408e-b114-2ff8ea0990ad" value="訂單列表" style="shape=rectangle;whiteSpace=wrap;html=1;rounded=1;" vertex="1" parent="1"><mxGeometry x="350" y="320" width="120" height="60" as="geometry" /></mxCell><mxCell id="906d1023-0995-46d3-87b6-226086cc3a61" edge="1" parent="1" source="34f8ef06-956f-4203-af83-e291541e8809" target="6b58a4f0-cbcb-408e-b114-2ff8ea0990ad" style="endArrow=block;"><mxGeometry relative="1" as="geometry" /></mxCell><mxCell id="3d64956f-a050-4a47-8894-100f8fe67b4b" value="訂單詳情" style="shape=rectangle;whiteSpace=wrap;html=1;rounded=1;" vertex="1" parent="1"><mxGeometry x="650" y="320" width="120" height="60" as="geometry" /></mxCell><mxCell id="14b5f3a2-374f-44c4-81b6-db285cf5f57d" edge="1" parent="1" source="34f8ef06-956f-4203-af83-e291541e8809" target="3d64956f-a050-4a47-8894-100f8fe67b4b" style="endArrow=block;"><mxGeometry relative="1" as="geometry" /></mxCell><mxCell id="17b1ec27-3027-4fb2-9f0c-6b8efd88ff4d" value="出貨處理" style="shape=rectangle;whiteSpace=wrap;html=1;rounded=1;" vertex="1" parent="1"><mxGeometry x="950" y="320" width="120" height="60" as="geometry" /></mxCell><mxCell id="3515599a-e6c1-44b9-beca-d48b42dfadcd" edge="1" parent="1" source="34f8ef06-956f-4203-af83-e291541e8809" target="17b1ec27-3027-4fb2-9f0c-6b8efd88ff4d" style="endArrow=block;"><mxGeometry relative="1" as="geometry" /></mxCell><mxCell id="a8c4586b-845f-4a36-870c-3c291dd7649e" value="用戶管理" style="shape=rectangle;whiteSpace=wrap;html=1;rounded=1;" vertex="1" parent="1"><mxGeometry x="950" y="220" width="120" height="60" as="geometry" /></mxCell><mxCell id="ef9381bc-3cc2-4b50-9ee6-5d59db8fe6f3" edge="1" parent="1" source="83a362b2-a57e-4edb-9933-e455b07e83d3" target="a8c4586b-845f-4a36-870c-3c291dd7649e" style="endArrow=block;"><mxGeometry relative="1" as="geometry" /></mxCell><mxCell id="c869a185-d3c1-4c2d-899b-0fe3f4f789ba" value="會員列表" style="shape=rectangle;whiteSpace=wrap;html=1;rounded=1;" vertex="1" parent="1"><mxGeometry x="650" y="320" width="120" height="60" as="geometry" /></mxCell><mxCell id="be47dd71-5a24-4274-96ea-945f72cf6714" edge="1" parent="1" source="a8c4586b-845f-4a36-870c-3c291dd7649e" target="c869a185-d3c1-4c2d-899b-0fe3f4f789ba" style="endArrow=block;"><mxGeometry relative="1" as="geometry" /></mxCell><mxCell id="f9f77481-23f7-4593-8faa-c2c3de782cdb" value="權限設定" style="shape=rectangle;whiteSpace=wrap;html=1;rounded=1;" vertex="1" parent="1"><mxGeometry x="950" y="320" width="120" height="60" as="geometry" /></mxCell><mxCell id="bcf3cd66-a458-4564-a701-577e1c9c7c63" edge="1" parent="1" source="a8c4586b-845f-4a36-870c-3c291dd7649e" target="f9f77481-23f7-4593-8faa-c2c3de782cdb" style="endArrow=block;"><mxGeometry relative="1" as="geometry" /></mxCell><mxCell id="375fa7fc-c15f-4d4c-ad40-bc74de05ad56" value="停用帳號" style="shape=rectangle;whiteSpace=wrap;html=1;rounded=1;" vertex="1" parent="1"><mxGeometry x="1250" y="320" width="120" height="60" as="geometry" /></mxCell><mxCell id="dd0e9e0e-2cfc-4063-a70a-1abca956ae7c" edge="1" parent="1" source="a8c4586b-845f-4a36-870c-3c291dd7649e" target="375fa7fc-c15f-4d4c-ad40-bc74de05ad56" style="endArrow=block;"><mxGeometry relative="1" as="geometry" /></mxCell><mxCell id="5a163bca-e443-4133-a771-994d60c9f87c" value="推薦系統管理" style="shape=rectangle;whiteSpace=wrap;html=1;rounded=1;" vertex="1" parent="1"><mxGeometry x="1250" y="220" width="120" height="60" as="geometry" /></mxCell><mxCell id="1ffd3a12-97f6-4d0c-ad42-87dc1a225a99" edge="1" parent="1" source="83a362b2-a57e-4edb-9933-e455b07e83d3" target="5a163bca-e443-4133-a771-994d60c9f87c" style="endArrow=block;"><mxGeometry relative="1" as="geometry" /></mxCell><mxCell id="332e6b8a-86e1-434e-b0cc-48ad5e7b0520" value="設定推薦規則" style="shape=rectangle;whiteSpace=wrap;html=1;rounded=1;" vertex="1" parent="1"><mxGeometry x="1100" y="320" width="120" height="60" as="geometry" /></mxCell><mxCell id="1b80d38f-7489-44d5-aacc-ac80362aa899" edge="1" parent="1" source="5a163bca-e443-4133-a771-994d60c9f87c" target="332e6b8a-86e1-434e-b0cc-48ad5e7b0520" style="endArrow=block;"><mxGeometry relative="1" as="geometry" /></mxCell><mxCell id="348b53bb-0979-47bb-bc02-79b14f1f958c" value="編輯推薦內容" style="shape=rectangle;whiteSpace=wrap;html=1;rounded=1;" vertex="1" parent="1"><mxGeometry x="1400" y="320" width="120" height="60" as="geometry" /></mxCell><mxCell id="09fa0c23-5b4b-4018-b6cb-ae0519a67740" edge="1" parent="1" source="5a163bca-e443-4133-a771-994d60c9f87c" target="348b53bb-0979-47bb-bc02-79b14f1f958c" style="endArrow=block;"><mxGeometry relative="1" as="geometry" /></mxCell><mxCell id="e76d1b0f-3b7b-45b2-bb95-e21f368e5e03" value="搜尋與瀏覽紀錄" style="shape=rectangle;whiteSpace=wrap;html=1;rounded=1;" vertex="1" parent="1"><mxGeometry x="1550" y="220" width="120" height="60" as="geometry" /></mxCell><mxCell id="07c03baa-b2c8-4f1a-9a33-1daf1ffff3d4" edge="1" parent="1" source="83a362b2-a57e-4edb-9933-e455b07e83d3" target="e76d1b0f-3b7b-45b2-bb95-e21f368e5e03" style="endArrow=block;"><mxGeometry relative="1" as="geometry" /></mxCell><mxCell id="dd06813f-1e77-47c3-9f55-991c140afef3" value="搜尋紀錄查詢" style="shape=rectangle;whiteSpace=wrap;html=1;rounded=1;" vertex="1" parent="1"><mxGeometry x="1400" y="320" width="120" height="60" as="geometry" /></mxCell><mxCell id="ca6aa057-1015-4c69-9ab5-bc09ed1840b2" edge="1" parent="1" source="e76d1b0f-3b7b-45b2-bb95-e21f368e5e03" target="dd06813f-1e77-47c3-9f55-991c140afef3" style="endArrow=block;"><mxGeometry relative="1" as="geometry" /></mxCell><mxCell id="461cf4a3-cb83-438a-922b-2edc8238cae6" value="最近瀏覽商品紀錄" style="shape=rectangle;whiteSpace=wrap;html=1;rounded=1;" vertex="1" parent="1"><mxGeometry x="1700" y="320" width="120" height="60" as="geometry" /></mxCell><mxCell id="fb836fd1-785c-435b-adeb-93dd2d9defe7" edge="1" parent="1" source="e76d1b0f-3b7b-45b2-bb95-e21f368e5e03" target="461cf4a3-cb83-438a-922b-2edc8238cae6" style="endArrow=block;"><mxGeometry relative="1" as="geometry" /></mxCell><mxCell id="13ca2ff0-7ee0-4971-ad8b-ced9e34ae7ad" value="帳號管理" style="shape=rectangle;whiteSpace=wrap;html=1;rounded=1;" vertex="1" parent="1"><mxGeometry x="1850" y="220" width="120" height="60" as="geometry" /></mxCell><mxCell id="5669931f-46dc-431b-adbe-20c6f12a39e1" edge="1" parent="1" source="83a362b2-a57e-4edb-9933-e455b07e83d3" target="13ca2ff0-7ee0-4971-ad8b-ced9e34ae7ad" style="endArrow=block;"><mxGeometry relative="1" as="geometry" /></mxCell><mxCell id="ddaf6b9a-dff2-434b-aa81-fe474dae0161" value="修改密碼" style="shape=rectangle;whiteSpace=wrap;html=1;rounded=1;" vertex="1" parent="1"><mxGeometry x="1700" y="320" width="120" height="60" as="geometry" /></mxCell><mxCell id="54238d59-a640-4407-84c4-fb0feec62a72" edge="1" parent="1" source="13ca2ff0-7ee0-4971-ad8b-ced9e34ae7ad" target="ddaf6b9a-dff2-434b-aa81-fe474dae0161" style="endArrow=block;"><mxGeometry relative="1" as="geometry" /></mxCell><mxCell id="843f158c-001c-4b89-b6ea-5882c16008f3" value="登出" style="shape=rectangle;whiteSpace=wrap;html=1;rounded=1;" vertex="1" parent="1"><mxGeometry x="2000" y="320" width="120" height="60" as="geometry" /></mxCell><mxCell id="829932e7-b658-4376-8c7e-70818a6729ea" edge="1" parent="1" source="13ca2ff0-7ee0-4971-ad8b-ced9e34ae7ad" target="843f158c-001c-4b89-b6ea-5882c16008f3" style="endArrow=block;"><mxGeometry relative="1" as="geometry" /></mxCell></root></mxGraphModel></diagram></mxfile>